<?xml version="1.0" encoding="UTF-8" standalone="no"?>
<svg
   xmlns:dc="http://purl.org/dc/elements/1.1/"
   xmlns:cc="http://creativecommons.org/ns#"
   xmlns:rdf="http://www.w3.org/1999/02/22-rdf-syntax-ns#"
   xmlns:svg="http://www.w3.org/2000/svg"
   xmlns="http://www.w3.org/2000/svg"
   xmlns:sodipodi="http://sodipodi.sourceforge.net/DTD/sodipodi-0.dtd"
   xmlns:inkscape="http://www.inkscape.org/namespaces/inkscape"
   width="114.16933mm"
   height="69.539833mm"
   viewBox="0 0 114.16933 69.539833"
   version="1.1"
   id="svg8"
   inkscape:version="1.0beta2 (998e94e, 2020-02-11)"
   sodipodi:docname="dagger-android.svg"
   inkscape:export-filename="D:\dev\android\dagger2_android_tutorial\assets\dagger-android.png"
   inkscape:export-xdpi="96"
   inkscape:export-ydpi="96">
  <defs
     id="defs2" />
  <sodipodi:namedview
     id="base"
     pagecolor="#ffffff"
     bordercolor="#666666"
     borderopacity="1.0"
     inkscape:pageopacity="0.0"
     inkscape:pageshadow="2"
     inkscape:zoom="0.98994949"
     inkscape:cx="98.761383"
     inkscape:cy="201.72011"
     inkscape:document-units="mm"
     inkscape:current-layer="g61"
     inkscape:document-rotation="0"
     showgrid="false"
     fit-margin-top="0"
     fit-margin-left="0"
     fit-margin-right="0"
     fit-margin-bottom="0"
     inkscape:window-width="1920"
     inkscape:window-height="1027"
     inkscape:window-x="1912"
     inkscape:window-y="136"
     inkscape:window-maximized="1" />
  <metadata
     id="metadata5">
    <rdf:RDF>
      <cc:Work
         rdf:about="">
        <dc:format>image/svg+xml</dc:format>
        <dc:type
           rdf:resource="http://purl.org/dc/dcmitype/StillImage" />
        <dc:title />
      </cc:Work>
    </rdf:RDF>
  </metadata>
  <g
     style="display:inline"
     inkscape:label="Calque 1"
     inkscape:groupmode="layer"
     id="layer1"
     transform="translate(-37.527277,-9.5790647)">
    <g
       style="display:inline"
       id="g91">
      <g
         inkscape:label="Layer 1"
         id="layer1-1"
         transform="matrix(0.30110584,0,0,0.30110584,51.86366,-69.285595)">
        <g
           id="g80302"
           transform="matrix(1.3212521,0,0,1.3212521,480.52565,-75.040147)"
           style="fill:#000000">
          <path
             inkscape:connector-curvature="0"
             id="path825"
             d="m -299.03612,399.58105 c -6.88566,0 -13.96596,5.51768 -13.96596,15.17562 0,8.82926 6.22524,15.06562 13.96596,15.06562 6.38958,0 9.23732,-4.28876 9.23732,-4.28876 v 1.86946 c 0,0.8836 0.83542,1.86946 1.86946,1.86946 h 4.61866 v -29.03158 h -6.48812 v 3.68394 c 0,0 -2.8716,-4.34376 -9.23732,-4.34376 z m 1.15574,5.93636 c 5.66836,0 8.64172,4.9851 8.64172,9.2371 0,4.73604 -3.5303,9.23388 -8.6297,9.2339 -4.26278,0 -8.53284,-3.45238 -8.53284,-9.2964 0,-5.27526 3.67466,-9.1746 8.52082,-9.1746 z"
             style="opacity:1;fill:#000000;fill-opacity:1;stroke:none;stroke-width:0.0109968;stroke-linecap:square;stroke-linejoin:round;stroke-miterlimit:2.6131;stroke-dasharray:none;stroke-opacity:1" />
          <path
             sodipodi:nodetypes="ccccccccccccccc"
             inkscape:connector-curvature="0"
             id="path829"
             d="m -274.2933,429.27247 c -0.99682,0 -1.86946,-0.71498 -1.86946,-1.86946 v -27.16212 h 6.48812 v 3.59262 c 1.47022,-2.20986 4.34254,-4.26128 8.75132,-4.26128 7.2059,0 11.04296,5.74422 11.04296,11.11564 v 18.5846 h -4.5087 c -1.18224,0 -1.97942,-0.9897 -1.97942,-1.97942 v -15.1756 c 0,-2.97738 -1.82422,-6.59332 -6.04314,-6.59332 -4.55234,0 -7.26302,4.30228 -7.26302,8.3528 v 15.39554 z"
             style="opacity:1;fill:#000000;fill-opacity:1;stroke:none;stroke-width:0.0109968;stroke-linecap:square;stroke-linejoin:round;stroke-miterlimit:2.6131;stroke-dasharray:none;stroke-opacity:1" />
          <path
             sodipodi:nodetypes="ssscssccccssscss"
             inkscape:connector-curvature="0"
             style="opacity:1;fill:#000000;fill-opacity:1;stroke:none;stroke-width:0.0109968;stroke-linecap:square;stroke-linejoin:round;stroke-miterlimit:2.6131;stroke-dasharray:none;stroke-opacity:1"
             d="m -230.96586,399.58105 c -6.88564,0 -13.96594,5.51768 -13.96594,15.17562 0,8.82926 6.22524,15.06562 13.96594,15.06562 6.38958,0 9.23734,-4.28876 9.23734,-4.28876 v 1.86946 c 0,0.8836 0.83542,1.86946 1.86946,1.86946 h 4.61866 v -43.54736 h -6.48812 v 18.1997 c 0,0 -2.87162,-4.34374 -9.23734,-4.34374 z m 1.15576,5.93636 c 5.66836,0 8.64172,4.9851 8.64172,9.2371 0,4.73604 -3.53032,9.23388 -8.6297,9.2339 -4.26278,0 -8.53284,-3.45238 -8.53284,-9.2964 0,-5.27528 3.67464,-9.1746 8.52082,-9.1746 z"
             id="path833" />
          <path
             style="opacity:1;fill:#000000;fill-opacity:1;stroke:none;stroke-width:0.0109968;stroke-linecap:square;stroke-linejoin:round;stroke-miterlimit:2.6131;stroke-dasharray:none;stroke-opacity:1"
             d="m -206.22302,429.27247 c -0.99682,0 -1.86946,-0.71498 -1.86946,-1.86946 v -27.16212 h 6.48812 v 4.8386 c 1.11676,-2.7106 3.52662,-5.1685 7.80774,-5.1685 1.19346,0 2.30934,0.21994 2.30934,0.21994 v 6.70804 c 0,0 -1.39338,-0.54984 -3.07912,-0.54984 -4.55234,0 -7.03796,4.30228 -7.03796,8.35282 v 14.63052 z"
             id="path835"
             inkscape:connector-curvature="0"
             sodipodi:nodetypes="cccccccccccc" />
          <path
             sodipodi:nodetypes="cccccc"
             inkscape:connector-curvature="0"
             id="path837"
             d="m -152.1187,429.27247 c -0.99682,0 -1.86946,-0.71498 -1.86946,-1.86946 v -27.16212 h 6.48812 v 29.03158 z"
             style="opacity:1;fill:#000000;fill-opacity:1;stroke:none;stroke-width:0.0109968;stroke-linecap:square;stroke-linejoin:round;stroke-miterlimit:2.6131;stroke-dasharray:none;stroke-opacity:1" />
          <path
             id="path839"
             d="m -128.47554,399.58105 c -6.88566,0 -13.96596,5.51768 -13.96596,15.17562 0,8.82926 6.22524,15.06562 13.96596,15.06562 6.38956,0 9.23731,-4.28876 9.23731,-4.28876 v 1.86946 c 0,0.8836 0.83542,1.86946 1.86946,1.86946 h 4.61866 v -43.54736 h -6.48812 v 18.1997 c 0,0 -2.87159,-4.34374 -9.23731,-4.34374 z m 1.15574,5.93636 c 5.66836,0 8.64171,4.9851 8.64171,9.2371 0,4.73604 -3.53029,9.23388 -8.62969,9.2339 -4.26278,0 -8.53284,-3.45238 -8.53284,-9.2964 0,-5.27528 3.67466,-9.1746 8.52082,-9.1746 z"
             style="opacity:1;fill:#000000;fill-opacity:1;stroke:none;stroke-width:0.0109968;stroke-linecap:square;stroke-linejoin:round;stroke-miterlimit:2.6131;stroke-dasharray:none;stroke-opacity:1"
             inkscape:connector-curvature="0"
             sodipodi:nodetypes="ssscssccccssscss" />
          <circle
             r="4.2912617"
             cy="389.68787"
             cx="-150.79517"
             id="path841"
             style="opacity:1;fill:#000000;fill-opacity:1;stroke:none;stroke-width:0.0138428;stroke-linecap:square;stroke-linejoin:round;stroke-miterlimit:2.6131;stroke-dasharray:none;stroke-opacity:1" />
          <path
             inkscape:connector-curvature="0"
             id="path843"
             d="m -174.3765,399.57139 c -7.21114,0 -15.13372,5.38276 -15.13372,15.13372 0,8.88566 6.74818,15.11826 15.11804,15.11826 10.315,0 15.35172,-8.29218 15.35172,-15.06198 0,-8.30724 -6.48568,-15.19 -15.33604,-15.19 z m 0.0236,6.059 c 4.9867,0 8.70638,4.01914 8.70638,9.09298 0,5.16184 -3.94862,9.14498 -8.69156,9.14498 -4.40284,0 -8.68276,-3.583 -8.68276,-9.0582 0,-5.56646 4.07064,-9.17976 8.66794,-9.17976 z"
             style="opacity:1;fill:#000000;fill-opacity:1;stroke:none;stroke-width:0.0109968;stroke-linecap:square;stroke-linejoin:round;stroke-miterlimit:2.6131;stroke-dasharray:none;stroke-opacity:1" />
        </g>
        <path
           id="path80319"
           d="m 263.83714,306.59003 21.93313,-37.99441 c 1.2377,-2.12998 0.48933,-4.83565 -1.61189,-6.07335 -2.1012,-1.23768 -4.83565,-0.5181 -6.04456,1.61189 l -22.22097,38.48374 c -16.95357,-7.74281 -36.03711,-12.06035 -56.55987,-12.06035 -20.52274,0 -39.60629,4.31754 -56.55986,12.06035 l -22.22097,-38.48374 c -1.2377,-2.12999 -3.94336,-2.84957 -6.07335,-1.61189 -2.13,1.2377 -2.84959,3.94337 -1.61189,6.07335 l 21.93314,37.99441 C 96.978343,327.084 71.360891,365.36624 67.129701,410.18238 H 331.53627 C 327.30507,365.36624 301.68761,327.084 263.83714,306.59003 Z m -125.20887,66.46144 c -6.13092,0 -11.0817,-4.97957 -11.0817,-11.08169 0,-6.13093 4.97957,-11.0817 11.0817,-11.0817 6.13092,0 11.08171,4.97956 11.08171,11.0817 0.0289,6.10212 -4.95079,11.08169 -11.08171,11.08169 z m 121.38064,0 c -6.13091,0 -11.08172,-4.97957 -11.08172,-11.08169 0,-6.13093 4.97958,-11.0817 11.08172,-11.0817 6.13093,0 11.0817,4.97956 11.0817,11.0817 0.0288,6.10212 -4.95077,11.08169 -11.0817,11.08169 z"
           class="st0"
           inkscape:connector-curvature="0"
           style="fill:#32de84;stroke-width:0.287836" />
      </g>
    </g>
    <g
       id="g61"
       transform="matrix(0.0732452,0,0,0.0732452,37.527277,14.17196)">
      <path
         id="path43"
         fill="#c6cbd7"
         d="m 151,811.35 -3.5,-1.5202 -12,-6.1433 -22.223,-16.639 -7.1642,-7.9299 -0.61884,-3.3097 -0.61885,-3.3097 2.0324,-9 6.5923,-11.608 2.6546,-5.1724 2.6546,-5.1724 -6.3091,-7.7228 -9.3406,-12.158 -1.291,-2.4122 -1.2909,-2.4122 6.9225,-12.911 9.787,-10.431 -1.3641,-42 -1.852,-19 -0.98042,-9.0091 -0.98041,-9.0091 -0.49646,-17.907 -0.49646,-17.907 -5.617,-4.5965 -1.0386,-0.036 -1.0386,-0.0359 -6.9229,-3.5217 -8.2184,-2.7055 -7.2816,-6.6709 v -8.7104 l 5.6816,-8.8916 17.971,-18.378 5.3471,-10.306 v -3.8819 l -5.0683,-10.002 -3.4317,-3.6277 -10.794,-12.34 -4.2578,-1.0686 -18.948,-2.9795 -18.82,-2.0138 -7.1804,-1.506 6.01e-4,-7.9482 6e-4,-7.9482 9.7946,-15 4.476,-7 12.311,-22 2.3576,-4 4.2425,-7 0.71075,-7 0.71075,-7 5.1512,-10.179 6.7639,-9.3205 h 1.5964 l 20.949999,19.5 3.4162,2.7303 6.2188,-6.6572 4.7988,-9.9474 -5e-4,-3.5628 -5.1e-4,-3.5628 -3.8062,-10 -8.1279,-15.058 -18.128999,1.8496 -4.4364,-2.0485 -4,-12.744 v -20 l 3.5163,-6.84 -3.1294,-44.16 -2.7952,-22 -5.0027,-27 -5.0118,-22 -5.0448,-20 -4.8533,-18 -2.256,-7 -1.8968,-22 -5.9049,-23 -4.863,-16 -7.2583,-18.672 0.03327,-5.6642 0.03327,-5.6642 3.5187,-4.2093 6.9148,-3.0765 3.4749,-1.1417 13.525,10.298 20.925,17.129 12.074999,12.192 9.957,10.583 10.062,7.4335 11.833,10.792 14.694,18 2.6219,3 17.332,26.45 v 1.8831 l 1.5323,0.66667 8.9192,15 6.3558,9 9.2499,17 13.117,27 4.5879,10 6.5392,16 3.6988,8.4782 0.012,2.5218 3.0118,5.775 3.2174,11.225 1.5349,2 4.4128,15 4.5075,16 1.3895,3.1668 3.8182,22.833 2.4993,11 2.4993,11 5.2322,21 5.0212,21 3.827,20 1.0387,4.3778 1.0387,4.3778 1.0146,10.122 1.0146,10.122 -0.29493,9.5 -0.29494,9.5 -10,2 -2,1.2449 -17,1.3285 -11,2.1433 -2,1.5385 -5,1.4245 -9.5335,6.3203 -7.1824,14 -0.50961,7.561 -0.5096,7.561 2.7351,2.878 11.115,15 6.1437,11 1.728,5.331 1.728,5.331 -2.4723,8.8303 -7.5399,2.0303 -9.7023,2.1282 -6.3282,1.0479 -0.6687,9.6506 -0.66871,9.6506 -1.5076,17.5 -1.5076,17.5 -0.93981,9 -0.9398,9 -0.4396,51.348 10,9.1982 -0.12545,5.3415 -0.12544,5.3415 -7.7491,13.404 -1.5,2.6832 -1.5,2.6832 v 13.04 l 8,11.516 5.2452,10.207 -1.3664,2.6187 -1.3664,2.6187 -0.006,1.3151 -0.006,1.3151 -10.978,10.632 -22.522,15.03 -2.4243,2.6037 -2.4243,2.6037 -5.0757,-0.0639 -5.0757,-0.064 -3.5,-1.5202 z"
         inkscape:connector-curvature="0" />
      <path
         id="path45"
         fill="#adb1ca"
         d="m 150.5,810.73 -6,-2.0215 -19,-12.467 -18,-14.81 -2.5797,-7.831 1.9598,-9.1381 12.12,-21.707 v -1.9608 l -12.556,-15.293 -5.5755,-8.297 5.9627,-11.703 10.169,-11.321 -0.023,-13.84 -0.023,-13.84 -2.1356,-26 -2.1356,-26 -0.40872,-17.496 -0.40871,-17.496 -3.3653,-3.7743 -12,-5.4956 -7.6207,-2.4337 -7.8793,-7.4954 v -6.5074 l 3.4633,-7.2984 21.037,-22.041 4.5,-9.1819 -0.016,-5.7809 -5.4837,-9.5026 -13,-14.837 -10,-2.1269 -11,-2.1528 -27.991,-2.9724 -0.87178,-0.87177 -0.87178,-0.87178 0.77429,-13.703 9.1786,-13.962 7.1411,-12.384 7.1407,-12.384 v -0.82933 l 9.7519,-16.403 1.2606,-12.914 5.972,-11.475 5.1356,-7.5678 2.3798,-1.4803 13,12.448 11.372,10.794 5.6279,-6.5918 5.6123,-10.214 -0.3427,-6 -0.34269,-6 -5.2808,-10.534 -5.2808,-10.534 -22.123,0.0672 -1.6269,-3 -3.6155,-12 0.0136,-16 3.6077,-9.106 -2.0391,-36.894 -4.1185,-34 -1.2931,-4 -4.4889,-24 -5.0465,-21 -5.0307,-20 -4.8042,-18.205 -1.1472,-1.8562 -1.0972,-11.969 -1.0971,-11.969 -5.9369,-23.252 -5.9169,-17.748 -6.0979,-16 -0.0036,-4.0179 -0.0037,-4.0179 4.8923,-7.1997 9.2102,-2.3192 2.3974,1.4459 18,14.002 19.559,16.867 16.339,17.737 7.1475,4.73 14.527,13.331 9.4273,10.531 5,6.7189 5.271,6.6777 20.57,32.513 6.3557,10 8.406,13 19.426,39 1.885,4.5 1.885,4.5 5.6149,13 7.0843,18.451 5.0862,15.549 1.7722,4 6.0554,20 1.6662,6.5 1.6661,6.5 4.5524,25 5.2038,21.5 4.9111,20.5 1.5389,6.5 1.5389,6.5 2.0031,8.5 2.0031,8.5 3.1126,20 0.90219,7 0.9022,7 0.0439,9.1276 0.0439,9.1276 -2.5,2.0208 -17,3.1622 -21.394,2.9798 -12.606,6.2992 -4.4253,4.0613 -6.4902,13.222 -0.69972,15 17.04,23.714 4.2103,8.6972 1.0518,10.589 -2.0993,5.3993 -8.5878,2.3152 -14,2.3426 -0.69884,5.4715 -0.69883,5.4715 -1.1316,13.5 -1.1316,13.5 -2.7653,30 -0.6898,28.02 -0.68981,28.02 10.537,9.4734 v 9.9465 l -5.4546,10.54 -2.6999,3.0732 -3.0763,7.3626 v 10.164 l 1.5874,3.0696 1.5874,3.0696 6.8084,9.4768 1.5577,3.7281 1.5577,3.7281 -2.3819,7.2171 -9.2166,9.8824 -21,14.041 -9.2776,7.6878 -6.7224,-0.24974 -6,-2.0215 z m 45.745,-326.51 9.2601,-7.7857 10.995,-8.0652 4,-1.542 21.144,-1.4386 7.3555,-4.546 v -12.49 l -2.1692,-21.847 -2.7539,-13 -5.0357,-21 -4.7633,-20 -0.67639,4 -0.67638,4 0.52276,63 -4.0256,12 -4.9223,2.348 -24,5.2337 -11.753,5.9038 -12.711,2.2135 0.88931,1.6617 0.8893,1.6617 4.11,3.7195 0.95344,3.1291 0.95343,3.1291 0.62953,3.75 0.62952,3.75 h 1.8944 z m 9.7023,-187.96 1.0414,-3.75 -0.0378,-13 -2.0238,-9 -3.9274,-8.4782 v -1.1052 l -6.1689,-13.417 -1.9776,-4.5 -1.9776,-4.5 -2.7554,-6 -7.2713,-16 -10.286,-21 -9.8151,-18 -2.5356,-4 -2.5356,-4 -2.8386,-4.1635 -2.8386,-4.1635 v -2.173 h -1.5688 l -1.8903,-3.25 -1.8903,-3.25 -1.1612,-1 -11.471,-15.412 -2.7594,-2.8804 -2.7593,-2.8804 -10.973,-12.827 -19.027,-19.027 -26,-21.763 -4.4388,-4.0008 -2.0601,5.4185 5.0298,17.373 2.7508,7.9058 11.609,2.6366 9.1089,5.9718 10,11.31 13,14.328 7.999,11.848 19.001,27.018 5.8465,8.9815 4.3462,7 6.0807,10 10.477,22 2.446,5 1.3068,5 1.3068,5 1.7226,2.2446 3.9185,17.755 1.7919,6 10.727,24.995 9.162,9.5054 h 3.2737 z"
         inkscape:connector-curvature="0" />
      <path
         id="path47"
         fill="#9894a3"
         d="m 150.47,810.6 -4.0322,-1.2633 -9.9357,-5.7536 -10,-6.9265 -17.025,-13.585 -3.8079,-6.4462 0.21532,-9.4527 5.903,-11.675 8.0654,-13.886 -12.502,-15.114 -6.4872,-9.561 7.077,-12.655 9.0611,-10.078 -0.018,-27.706 -4.2167,-54 -0.47855,-16.522 -0.47856,-16.522 -2.3241,-3.1784 -9.9832,-5.002 -10.63,-3.4806 -3.9349,-3.7432 -3.9358,-3.7432 v -6.3894 l 4.2197,-8.2713 19.584,-20.149 5.1966,-9.7979 v -5.9831 l -4.2423,-8.4943 -14.07,-15.725 -1.1862,-0.71138 -1.1863,-0.71139 -11.816,-2.0822 -13,-1.8269 -21,-2.3413 -2.5,-2.0717 0.02336,-5.6276 0.02336,-5.6276 5.4533,-9.3923 13.174,-21.608 11.681,-21 3.4438,-5 1.1902,-12.686 2.0313,-4.5921 2.0313,-4.5921 7.148,-10.769 2.9742,-1.1413 15.326,14.808 8.5085,7.887 5.8706,-6.9142 5.3729,-9.7337 -0.48314,-6.7526 -0.48315,-6.7526 -10.734,-20.269 -21.081,1.2804 -2.1194,-2.7721 -3.4604,-12.862 -0.55509,-6.069 -0.55508,-6.069 4.3215,-12 -1.2536,-32 -4.9458,-40 -4.9773,-25 -4.0398,-17 -6.6959,-27 -6.0098,-22 -1.2766,-14 -2.0856,-14 -3.9537,-14 -7.1475,-23 -1.5078,-2 -4.2087,-14.216 v -4.4821 l 3.2697,-6.8904 5.2303,-2.7039 5,-0.42939 2.1128,0.22138 15.887,12.068 21.575,18.282 17.333,18.883 8.0924,5.076 21.187,21.192 3.8132,5.1851 11.194,14.815 20.58,33 7.0302,11 4.5085,7 13.225,25.597 10.181,22.403 2.9299,7 2.9299,7 3.007,8 3.007,8 3.7807,10 5.9065,18 4.1042,13 3.0149,12 5.1116,27 4.7977,21 4.2004,17 2.987,11 4.9799,23 4.1631,27 1.1335,24.03 -2.7707,2.206 -13.5,2.2635 -13.5,2.0798 -12,2.0556 -12,6.0942 -4.7005,4.2704 -6.1383,12 -0.41103,8 -0.41102,8 16.35,23 2.4617,4.828 2.4617,4.828 0.49047,4.672 0.49046,4.672 -1.7265,6 -7.8671,2.616 -15.393,2.1804 -0.98146,10.204 -2.1043,21 -3.0346,41 -0.93904,12 -0.93905,12 0.59146,14.181 0.59145,14.181 9.7087,9.5627 v 9.6745 l -1.6253,3.2003 -1.6253,3.2003 -6.6195,11 -2.2069,8.5 2.2401,8.5 9.9251,14.454 2.0308,5.8254 -2.9664,7.0995 -8.3723,9.0829 -25.419,16.981 -3.6711,4.0565 -10.19,-0.1338 -4.0321,-1.2633 z m 37.317,-319.33 2.7148,-1.7282 15.187,-13.256 11.813,-8.0061 4.6077,-1.4502 20.574,-1.4685 6.3179,-4.4987 v -21.137 l -4.0644,-24.372 -10.701,-42.854 -1.6005,6 -0.083,21 0.3388,20.5 0.33879,20.5 -2.0378,7.3401 -2.0378,7.3401 -0.65306,0.46488 -9,3.2661 -14,2.3399 -12.917,4.8162 -3.0831,2.755 -10,1.2869 -4.6424,0.96464 6.3926,7.2807 1.3749,3.2906 1.3749,3.2906 v 8.0642 h 1.0704 l 2.7148,-1.7282 z m -71.103,-9.9829 2.6115,-1.7111 5.7067,-7.8779 -0.012,-8.1999 -6.9555,-22 -0.033,-16.564 -2.7808,-6.4358 -6.5574,-5 -4.3422,-4 -8.3558,-6.6233 -3.9858,1.265 -2.686,5.3583 -1.1228,4.6006 -1.1228,4.6005 -3.0232,6.0934 -3.0228,6.0934 v 1.9455 l -0.85943,0.33334 -0.85943,0.33333 -4.2262,9 -9.0519,17 -0.003,2.2416 14.113,1.3907 13.013,4.8982 10.373,7.6854 8.6892,7.2841 h 1.8811 l 2.6115,-1.7111 z m 72.22,-152.44 1.0978,-3.1492 v -16.705 l -5.7663,-16.496 -8.8945,-19 -2.0752,-6 -2.0752,-6 -6.3573,-21 -6.6945,-18 -6.186,-15 -3.1476,-9.2145 -3.1476,-9.2145 -8.855,-1.3279 -7.301,2.291 -5.3799,4.4659 6.0016,14 0.89719,2 0.89718,2 5.2218,15.953 1.4887,7.5235 1.4887,7.5235 1.8711,5 4.1681,27 2.3814,16.5 2.3814,16.5 1.0546,5.5 1.0546,5.5 0.53207,3.25 0.53206,3.25 h 4.1006 l 5.7385,-4.0862 2.0591,-7.4138 0.012,-16.5 h 1.9594 l 3.7591,7.5 3.5947,15 3.7776,9 3.2916,2.5 h 5.4221 l 1.0978,-3.1492 z m 17.682,-33.351 1.3856,-4 0.0302,-10.525 -3.7879,-13.475 -9.4315,-21 -4.7806,-10.376 v -0.95183 l -10.118,-21.672 -11.718,-23 -5.1043,-9 -2.1761,-4 -2.1761,-4 -14.483,-22 -9.2112,-12 -2.11,-2.5 -2.11,-2.5 -21.213,-23.689 -13.081,-12.637 -15,-12.472 -1,-1.2011 -13.307,-11.5 h -1.9787 l -1.214,3.1636 v 4.4481 l 3.8344,11.888 3.3651,11.264 10.845,2.1781 8.7074,5.1029 9.7476,10.571 13,14.787 20.767,29.097 20.621,31.194 12.698,24.806 3.2182,8.5 3.2182,8.5 4.6981,16 1.4352,10 2.4517,4 3.8858,9.5 3.8858,9.5 5.6127,8.3483 5.391,4.2406 3.816,-0.58894 z"
         inkscape:connector-curvature="0" />
      <path
         id="path49"
         fill="#99876e"
         d="m 150.68,810.38 -4.8228,-1.4818 -14.052,-8.397 -20.302,-16.107 -5.5,-6.5464 v -9.5923 l 2.135,-4.8771 2.135,-4.8771 8.3803,-14 1.2308,-3.3536 -7.4149,-8.6464 -7.1169,-9 -3.8287,-6.5818 6.5064,-12.549 10.185,-11.428 -0.50583,-15.221 -0.50583,-15.221 -2.0276,-25 -2.0276,-25 -0.71477,-17.33 -0.71476,-17.33 -7.3474,-4.8623 -11.803,-4.1484 -8.633,-5.0593 -2.9327,-5.6712 v -3.1658 l 4.9008,-9.6713 20.702,-21.906 1.8126,-3.8197 1.8126,-3.8198 -0.49031,-4.3501 -0.49032,-4.3501 -5.7476,-8.732 -12.369,-13.431 -10.631,-2.8254 -16,-1.9335 -20,-2.2975 -3.5,-1.8674 v -9.6854 l 1.6177,-3.8721 1.6177,-3.8721 5.4418,-8 5.0764,-8 14.467,-26 5.5382,-9 1.2726,-11.616 4.642,-11.424 7.5145,-10.46 h 1.4659 l 9.8464,9.1552 14.738,13.303 6.765,-7.9583 3.9969,-8.1314 v -11.925 l -6.9497,-14.502 -2.4906,-4.2499 -2.4906,-4.2499 -18.133,1.85 -4.6185,-2.1044 -4.4325,-22.247 4.3927,-17.441 -2.2701,-42 -4.7961,-33 -4.3242,-21 -4.9963,-21 -5.7556,-23 -5.1687,-19 -3.9776,-30 -1.8618,-7 -3.8656,-14 -6.4853,-18 -3.7115,-10 -0.03265,-5.2029 -0.03264,-5.2029 2.2771,-4.9977 6.5251,-3.0964 h 6.0322 l 13.018,10.5 15.678,12.427 24.969,25.281 8,6.184 14.878,13.108 15.771,19 12.58,19 13.587,22 10.97,17 5.9783,11 10.529,21 8.4271,18 3.8338,10 0.93309,2 0.93308,2 3.435,9 3.435,9 10.049,30 3.9228,13.081 2.2736,10.919 5.9565,29 4.773,20 5.3785,22 4.8241,22.64 1.0478,1.6954 4.9835,39.659 v 11.363 l -1.4764,1.4764 -1.4764,1.4764 -13.547,2.1209 -16,2.2934 -11.857,2.923 -9.1428,4.804 -4.5217,3.8868 -7.3702,15.52 -0.108,13.195 15.149,20.947 5.3335,9.72 2.1913,8.1378 -0.64464,4.2988 -0.64465,4.2988 -12.455,3.8471 -11.364,1.4199 -0.51306,1.6388 -0.51307,1.6388 -2.5655,31 -2.5655,31 -2.073,26.855 0.33303,16.073 0.33298,16.073 10.5,9.7737 v 8.7834 l -6.0253,11.443 -2.9657,5.5 -2.9657,5.5 -0.0432,8.5993 1.6301,3.1522 1.6301,3.1522 7.7257,11.318 2.9765,7.1239 -1.551,3.7122 -1.5511,3.7122 -10.36,10.311 -22.127,14.393 -4.7218,5.0261 -9.1514,-0.1394 -4.8228,-1.4818 z m 12.9,-22.412 4.7432,-2.0332 12.75,-13.197 1.9754,-3.691 -7.5458,-3.1739 -9,-1.7038 -18,-1.3171 -17.645,2.0755 -6.8547,4.2365 v 3.235 l 9.7312,9.1019 16.431,8.5 h 8.6718 z m -3.7053,-209.59 3.1221,-0.62443 2.1552,-8.2511 15.038,-30.646 -1.1844,-1.1844 -18.503,-1.3956 -44,1.32 -6.32,3.364 -5.9899,7.2667 -0.41582,2.1752 -0.41583,2.1752 0.81622,2.4486 8.5986,5.916 7.7267,1.2001 18.823,-12.118 9.1769,-4.4788 14.707,-0.77224 -1.3626,4.7291 -5.3449,4.659 -12.392,7.7279 -2.2905,8.5063 2.9856,6.261 6.6973,2.1417 5.25,0.20418 z m 27.444,-86.506 2.1843,-1.1303 13,-11.368 10.831,-8.4911 6.1685,-3.2883 23.458,-2.3048 7.0287,-4.7869 -0.1284,-11 -0.83048,-8.5 -0.83047,-8.5 -1.634,-9 -1.634,-9 -10.702,-43 -2.3432,5.9366 -0.0128,13.881 -0.0128,13.881 0.6838,12.151 0.68381,12.151 -1.13,9.2239 -1.13,9.2239 -1.2327,3.7612 -1.2327,3.7612 -13,3.6794 -17,3.6029 -7.5915,4.0786 -1.3681,1.1354 -1.3681,1.1354 -14.055,1.1783 7.755,9.2198 1.0639,2.8151 1.0639,2.8151 v 7.8698 h 1.1315 l 2.1843,-1.1304 z m -67.706,-12.12 4.4932,-4.25 0.87231,-3.8787 0.87232,-3.8787 -0.92836,-5.7646 -0.92837,-5.7646 -2.4954,-6.6295 -2.4953,-6.6295 -0.0902,-18.454 -2.4098,-5.3141 -20.651,-17.159 -5.82,3.0097 -1.2372,5.4636 -2.772,9.7964 -15.453,29.204 -5.7512,11.649 0.97417,0.97416 11.711,1.1148 13,4.0637 10,6.3792 12,10.302 2.6164,0.018 4.4932,-4.25 z m 70.322,-154.15 1.4315,-6.9019 -2.2416,-15.38 -7.2936,-17.62 -1.774,-3.1969 -5.6794,-13 -2.7282,-9 -2.7282,-9 -6.149,-19 -2.6464,-6 -10.041,-26 -3.5815,-11 -8.311,-2.8732 -8.2767,2.4798 -6.152,5.4968 2.7023,6.4483 2.7023,6.4483 4.0254,10 4.0612,14 2.3935,10.5 2.3935,10.5 2.0562,11.817 1.4211,10.092 1.4212,10.092 4.0575,28 1.6019,7.2442 1.6019,7.2442 5.3018,-1.3048 4.3504,-2.8156 2.1496,-6.1665 0.0703,-7.1008 0.0703,-7.1008 0.77267,-1.9777 0.77267,-1.9777 1.0313,1.9777 1.0313,1.9777 4.4733,15 2.9595,9.5621 5.0863,6.0447 6.2324,-0.60676 z m 17.891,-37.076 0.41548,-9.4997 -3.4291,-10.523 -3.5645,-8 -12.396,-28 -3.6791,-8 -13.204,-27.876 -12.302,-22.124 -14.415,-22 -10.748,-14.298 -20,-22.577 -15,-15.203 -33.729,-28.669 -1.7401,2.747 -0.03554,7 6.1112,20 0.74103,1.3972 0.74103,1.3972 10.863,2.7801 8.1551,4.7792 8.1625,8.6462 14.731,16.708 4,5.5941 9,12.81 18.564,26.888 10.139,15.811 10.309,20.189 4.4724,10 4.1502,12 6.6258,26 4.0711,9 7.8524,17 5.481,6.4858 6.3342,1.7462 2.9066,-2.71 z"
         inkscape:connector-curvature="0" />
      <path
         id="path51"
         fill="#837b90"
         d="m 150.68,810.38 -4.8228,-1.4818 -14.052,-8.397 -20.302,-16.107 -5.5,-6.5464 v -9.5923 l 2.135,-4.8771 2.135,-4.8771 8.3803,-14 1.2308,-3.3536 -7.4149,-8.6464 -7.1169,-9 -3.8287,-6.5818 6.5064,-12.549 10.185,-11.428 -0.50583,-15.221 -0.50583,-15.221 -2.0276,-25 -2.0276,-25 -0.71477,-17.33 -0.71476,-17.33 -7.3474,-4.8623 -11.803,-4.1484 -8.633,-5.0593 -2.9327,-5.6712 v -3.1658 l 4.9008,-9.6713 20.702,-21.906 1.8126,-3.8197 1.8126,-3.8198 -0.49031,-4.3501 -0.49032,-4.3501 -5.7476,-8.732 -12.369,-13.431 -10.631,-2.8254 -16,-1.9335 -20,-2.2975 -3.5,-1.8674 v -9.6854 l 1.6177,-3.8721 1.6177,-3.8721 5.4418,-8 5.0764,-8 14.467,-26 5.5382,-9 1.2726,-11.616 4.642,-11.424 7.5145,-10.46 h 1.4659 l 9.8464,9.1552 14.738,13.303 6.765,-7.9583 3.9969,-8.1314 v -11.925 l -6.9497,-14.502 -2.4906,-4.2499 -2.4906,-4.2499 -18.133,1.85 -4.6185,-2.1044 -4.4325,-22.247 4.3927,-17.441 -2.2701,-42 -4.7961,-33 -4.3242,-21 -4.9963,-21 -5.7556,-23 -5.1687,-19 -3.9776,-30 -1.8618,-7 -3.8656,-14 -6.4853,-18 -3.7115,-10 -0.03265,-5.2029 -0.03264,-5.2029 2.2771,-4.9977 6.5251,-3.0964 h 6.0322 l 13.018,10.5 15.678,12.427 24.969,25.281 8,6.184 14.878,13.108 15.771,19 12.58,19 13.587,22 10.97,17 5.9783,11 10.529,21 8.4271,18 3.8338,10 0.93309,2 0.93308,2 3.435,9 3.435,9 10.049,30 3.9228,13.081 2.2736,10.919 5.9565,29 4.773,20 5.3785,22 4.8241,22.64 1.0478,1.6954 4.9835,39.659 v 11.363 l -1.4764,1.4764 -1.4764,1.4764 -13.547,2.1209 -16,2.2934 -11.857,2.923 -9.1428,4.804 -4.5217,3.8868 -7.3702,15.52 -0.108,13.195 15.149,20.947 5.3335,9.72 2.1913,8.1378 -0.64464,4.2988 -0.64465,4.2988 -12.455,3.8471 -11.051,1.3807 -3.6797,3.1584 -3.6797,3.1584 -0.49408,24 -0.49409,24 -0.91517,18.5 -0.91518,18.5 0.45283,9 0.45282,9 1.8197,15.35 10.075,9.4239 v 8.7834 l -6.0253,11.443 -2.9657,5.5 -2.9657,5.5 -0.0432,8.5993 1.6301,3.1522 1.6301,3.1522 7.7257,11.318 2.9765,7.1239 -1.551,3.7122 -1.5511,3.7122 -10.36,10.311 -22.127,14.393 -4.7218,5.0261 -9.1514,-0.1394 -4.8228,-1.4818 z m 12.9,-22.412 4.7432,-2.0332 12.75,-13.197 1.9754,-3.691 -7.5458,-3.1739 -9,-1.7038 -18,-1.3171 -17.645,2.0755 -6.8547,4.2365 v 3.235 l 9.7312,9.1019 16.431,8.5 h 8.6718 z m -3.7053,-209.59 3.1221,-0.62443 2.1552,-8.2511 15.038,-30.646 -1.1844,-1.1844 -18.503,-1.3956 -44,1.32 -6.32,3.364 -5.9899,7.2667 -0.41582,2.1752 -0.41583,2.1752 0.81622,2.4486 8.5986,5.916 7.7267,1.2001 18.823,-12.118 9.1769,-4.4788 14.707,-0.77224 -1.3626,4.7291 -5.3449,4.659 -12.392,7.7279 -2.2905,8.5063 2.9856,6.261 6.6973,2.1417 5.25,0.20418 z m -15.838,-53.394 1.9029,-1.0184 2.4333,-4.2316 2.4333,-4.2316 0.69067,-3.31 0.69066,-3.31 5.1404,-1.9544 1.2599,1.5743 5.8901,17.5 h 17.361 l 3.1636,-1.214 v -7.8853 l -3.3089,-6.4007 -5.794,-7.2115 -15.867,-14.397 -6.5303,3.0323 -14.898,5.3128 -4.1016,5.2121 -4.3722,6.0511 -6.1278,10.243 v 1.9035 l 12.5,5.2491 5.6315,0.104 1.9029,-1.0184 z m 43.281,-33.112 2.1843,-1.1303 13,-11.368 10.831,-8.4911 6.1685,-3.2883 23.458,-2.3048 7.0287,-4.7869 -0.1284,-11 -0.83048,-8.5 -0.83047,-8.5 -1.634,-9 -1.634,-9 -10.702,-43 -2.3432,5.9366 -0.0128,13.881 -0.0128,13.881 0.6838,12.151 0.68381,12.151 -1.13,9.2239 -1.13,9.2239 -1.2327,3.7612 -1.2327,3.7612 -13,3.6794 -17,3.6029 -7,3.7977 -1.4824,0.92756 -1.4824,0.92755 -4.0352,0.7346 -10.465,1.0431 7.837,9.317 1.0639,2.8151 1.0639,2.8151 v 7.8698 h 1.1315 l 2.1843,-1.1304 z m -67.706,-12.12 4.4932,-4.25 0.87231,-3.8787 0.87232,-3.8787 -0.92836,-5.7646 -0.92837,-5.7646 -2.4954,-6.6295 -2.4953,-6.6295 -0.0902,-18.454 -2.4098,-5.3141 -20.651,-17.159 -5.82,3.0097 -1.2372,5.4636 -2.772,9.7964 -15.453,29.204 -5.7512,11.649 0.97417,0.97416 11.711,1.1148 13,4.0637 10,6.3792 12,10.302 2.6164,0.018 4.4932,-4.25 z m 70.322,-154.15 1.4315,-6.9019 -2.2416,-15.38 -7.2936,-17.62 -1.774,-3.1969 -5.6794,-13 -2.7282,-9 -2.7282,-9 -6.149,-19 -2.6464,-6 -10.041,-26 -3.5815,-11 -8.311,-2.8732 -8.2767,2.4798 -6.152,5.4968 2.7023,6.4483 2.7023,6.4483 4.0254,10 4.0612,14 2.3935,10.5 2.3935,10.5 2.0562,11.817 1.4211,10.092 1.4212,10.092 4.0575,28 1.6019,7.2442 1.6019,7.2442 5.3018,-1.3048 4.3504,-2.8156 2.1496,-6.1665 0.0703,-7.1008 0.0703,-7.1008 0.77267,-1.9777 0.77267,-1.9777 1.0313,1.9777 1.0313,1.9777 4.4733,15 2.9595,9.5621 5.0863,6.0447 6.2324,-0.60676 z m 17.891,-37.076 0.41548,-9.4997 -3.4291,-10.523 -3.5645,-8 -12.396,-28 -3.6791,-8 -13.204,-27.876 -12.302,-22.124 -14.415,-22 -10.748,-14.298 -20,-22.577 -15,-15.203 -33.729,-28.669 -1.7401,2.747 -0.03554,7 6.1112,20 0.74103,1.3972 0.74103,1.3972 10.863,2.7801 8.1551,4.7792 8.1625,8.6462 14.731,16.708 4,5.5941 9,12.81 18.564,26.888 10.139,15.811 10.309,20.189 4.4724,10 4.1502,12 6.6258,26 4.0711,9 7.8524,17 5.481,6.4858 6.3342,1.7462 2.9066,-2.71 z"
         inkscape:connector-curvature="0" />
      <path
         id="path53"
         fill="#797187"
         d="m 151.5,810.6 -4,-1.2684 -8.3606,-4.299 -13.639,-9.3957 -16.501,-13.736 -2.9992,-5.7998 v -7.0588 l 1.7031,-4.2702 1.7031,-4.2702 8.7939,-14.896 0.85092,-2.2381 0.85092,-2.2381 -11.682,-13.947 -6.2203,-9.0409 v -2.2193 l 2.1288,-4.2102 2.1288,-4.2102 10.092,-12.5 h 1.8776 l -1.0191,-34.5 -4.232,-50 -0.29632,-15.667 -0.29631,-15.667 -1.3788,-1.6613 -1.3788,-1.6613 -9.1256,-4.5709 -7.5625,-2.4488 -8.7378,-4.8836 -1.5999,-3.3714 -1.5999,-3.3714 v -2.2642 l 4.8064,-9.4335 18.065,-18.707 5.4254,-7.8289 0.46279,-4.8163 0.46278,-4.8163 -3.4717,-6.8312 -6.6188,-8 -8.6967,-9.4351 -8.1125,-2.8622 -29.823,-3.2798 -11,-2.1562 -1.4694,-2.2666 -0.01531,-3.6243 -0.01531,-3.6243 3.0676,-8.6945 3.5951,-4.0569 11.097,-19 9.4963,-17 6.5409,-11 0.60774,-5.7288 0.60774,-5.7288 4.021,-10.201 8.041,-11.841 h 1.2018 l 9.2237,8.3633 14.648,13.637 h 1.8556 l 4.4648,-6.065 4.4648,-6.065 0.6531,-3.4813 0.6531,-3.4813 -0.87704,-10.576 -7.7563,-14.831 -1.5122,-3.2511 -1.5122,-3.2511 -3.0823,0.84549 -17,1.2057 -1.3655,-0.90488 -1.3655,-0.90489 -1.4461,-5.3696 -1.4461,-5.3696 -1.1542,-15.377 1.8231,-7.0292 1.8231,-7.0292 -2.4296,-43.564 -5.8173,-37 -4.9292,-23 -5.144,-21 -4.9504,-19 -5.0945,-20 -0.0019,-3.1506 -0.002,-3.1506 -3.9045,-22.839 -4.894,-16.86 -6.4247,-18 -3.7115,-10 -0.03265,-5.7342 -0.03264,-5.7342 5.5649,-6.2282 8.9351,-0.92143 19,15.152 11.557,9.388 24.811,25.078 16.356,12.984 11.276,12.056 13,16.977 5.353,7.9825 26.475,42 12.632,23 14.883,32 8.3064,21 2.6302,6 9.384,27.732 6.8823,23.268 0.93072,6 0.93071,6 2.0668,10 2.0668,10 5.0184,21 1.4394,5.5 1.4394,5.5 2.5207,10.5 2.5207,10.5 5.0962,24 2.9247,24.988 v 20.377 l -3.5,0.99704 -11,2.011 -14,1.3058 -15,4.0615 -9,4.6882 -4.1714,3.5712 -5.1347,9.0254 -3.4209,11.768 0.48021,4.2605 0.48022,4.2605 15.187,21.084 5.8319,11.602 1.4166,6.5434 -0.66213,3.9192 -0.66214,3.9192 -13.344,3.991 -10.055,1.2537 -7.4271,6.3736 -0.49408,24 -0.49409,24 -0.91517,18.5 -0.91518,18.5 0.92714,18 1.6776,15.736 10.196,8.9188 -0.0227,4.6725 -0.0227,4.6724 -7.2458,13 -2.3231,4.5 -2.3231,4.5 -0.016,9 5.4533,9.2949 2.8764,4.2828 2.8764,4.2828 1.3032,3.1191 1.3032,3.119 -3.5961,8.0321 -6.4783,7.3784 -25.285,16.808 -2.4243,2.5917 -2.4243,2.5916 -9.1514,-0.1338 -4,-1.2684 z m 13.333,-23.062 4.6674,-2.4146 6.2829,-6.0193 7.2171,-8.8075 v -1.2427 l -6.4254,-3.3227 -18.075,-2.7145 -13.355,-0.014 -15.645,2.0996 -5,3.6124 -0.29764,1.5107 -0.29765,1.5107 5.3752,6.388 12.22,8.174 11,4.7124 7.6653,-1.0578 4.6674,-2.4146 z m -1.7186,-209.39 0.61404,-0.64818 1.1449,-4.7282 1.1449,-4.7282 15.093,-29.402 -3.6103,-2.1412 -51,-0.28804 -12.83,2.0508 -8.5682,7.8979 -2.3075,6.9918 4.5374,4.8299 8.2994,4.0177 h 5.673 l 18.48,-11.852 9.7159,-4.513 12.5,-0.86826 v 2.9633 l -1.9955,2.5369 -1.9955,2.5368 -10.509,5.9514 -1.8451,2.0561 -1.8451,2.0561 -1.3077,3.8038 -1.3077,3.8038 2.7034,5.2277 4.6856,3.0701 3.9166,1.0526 10,-1.0294 z m -19.08,-53.167 1.9029,-1.0184 2.4333,-4.2316 2.4333,-4.2316 0.69067,-3.31 0.69066,-3.31 5.1404,-1.9544 1.2599,1.5743 5.8901,17.5 h 17.361 l 3.1636,-1.214 V 516.9 l -3.3089,-6.4007 -5.794,-7.2115 -15.867,-14.397 -6.5303,3.0323 -14.898,5.3128 -4.1016,5.2121 -4.3722,6.0511 -6.1278,10.243 v 1.9035 l 12.5,5.2491 5.6315,0.104 1.9029,-1.0184 z m 44.466,-33.864 3,-1.8744 13,-11.441 12,-8.548 7,-2.2033 20.371,-1.8967 6.3606,-4.655 -1.372,-25.659 -3.881,-20.341 -6.0064,-25 -3.0163,-11 -1.5784,-8 -2.8393,5 0.27681,31.653 0.27682,31.653 -1.1059,6.3503 -1.1059,6.3503 -3.4386,4.5587 -17.942,3.8546 -9,2.086 -14.838,7.4939 -11.162,1 5.2518,5.3428 4.3941,6.1709 0.56694,5.4932 0.56695,5.4932 1.2202,-0.008 3,-1.8744 z m -67.75,-11.501 3.25,-3.0569 v -2.3932 l 2.3525,-0.78416 -0.10235,-6.7498 -0.10236,-6.7498 -1.9241,-2.383 -4.46,-15 -0.71611,-10.5 -0.71612,-10.5 -0.73604,-1.5 -0.73603,-1.5 -11.359,-8.5161 -9.3999,-8.2264 -6.4471,3.7653 -1.2552,5.5268 -1.2552,5.5268 -7.0297,14.924 -15.218,28.784 1.0424,2.7165 h 9.8521 l 13.592,4.1982 10.229,5.773 13.762,11.9 4.1274,-2.1972 z m 23.25,-113.6 1.5,-0.94995 -0.1402,-16.601 -5.6252,-15.969 -4.7272,-9.4189 -12.501,-13.364 -8.672,-3.7173 h -7.881 l 0.67092,8.25 0.67091,8.25 3.952,3 8.0549,7 7.3603,10 12.721,23 2.1165,1.4694 h 1 l 1.5,-0.94995 z m 45,-34.819 v -1.8 l 2.4938,-2.4938 -0.033,-8.7031 -0.0331,-8.7031 -4.696,-14 -5.7317,-12.417 v -2.0834 h -1.6834 l -1.2447,-4.25 -1.2447,-4.25 -2.7065,-4.2454 -3.1896,-12.755 -1.8623,-4 -3.2476,-13 -1.5566,-2 -3.5293,-11 -1.4747,-2 -2.509,-8 -4.7516,-10.559 -0.0339,-1.2204 -0.0339,-1.2204 -3.8643,-8 -0.0339,-1.75 -0.034,-1.75 -4,-4 h -10.198 l -6.5595,3.1127 -4.5363,4.8287 1.0164,1.2793 1.0164,1.2793 2.5213,8 1.8018,2.2802 4.9264,12.571 4.8145,18.149 5.2067,26.358 1.9986,14.321 1.9986,14.321 3.8296,25 2.3079,9.1324 5.6542,-0.82986 6.7009,-6.9124 0.5,-10.133 0.5,-10.133 1.704,3.4374 1.704,3.4374 2.3539,11 1.5591,2 0.71418,3.8215 0.71419,3.8215 4.9284,5.8571 h 7.8222 z m 19.008,-38.248 1.1702,-6.9376 -0.65902,-4.2573 -0.65903,-4.2573 -1.045,-3.5 -1.045,-3.5 -10.546,-24 -11.479,-26 -14.564,-29.279 -9.4605,-16.721 -2.1928,-3.5 -2.1928,-3.5 -10.702,-16 -9.1847,-12.337 -19.948,-22.581 -12,-12.86 -30.61,-26.222 -7.0009,-5.9392 -1.8588,2.9392 -0.01531,3.8788 -0.01531,3.8788 5.2133,16.242 2.3611,7 4.9256,0.52532 7.7664,2.1348 9.5183,7.106 12.636,15.234 6.6261,6.6416 3.4337,5.3584 6.5456,9 1.474,2.0129 8.8945,12.987 1.3264,1 3.3304,6.5 h 1.9486 v 2.173 l 5.7281,8.327 9.0985,14.172 11.011,21.828 3.8955,9 3.0663,9 3.0663,9 2.2844,12 4.0649,12 2.4816,4 2.5982,8 6.0587,11 6.7625,6.3761 4.3839,0.71707 2.3379,-1.7036 z"
         inkscape:connector-curvature="0" />
      <path
         id="path55"
         fill="#8a4956"
         d="m 151.5,810.6 -4,-1.2704 -10,-5.3317 -12.682,-8.9649 -15.78,-13.055 -3.0377,-5.8742 v -5.8479 l 2.976,-8.4349 9.685,-17.317 0.63287,-1.7363 0.63288,-1.7363 -10.502,-12.527 -7.5846,-10.486 2.1633,-6.5143 5.7479,-8.656 8.5444,-8.9652 -1.2524,-40.379 -1.9495,-15 -2.0938,-29.375 v -29.777 l -4.5,-3.9794 -5,-3.066 -8,-2.5781 -11.1,-5.5521 -2.3999,-5.2672 v -6.0052 l 3.277,-6.4007 17.397,-18 6.6608,-9.4944 0.39403,-5.2528 0.39404,-5.2528 -1.8115,-3.2451 -1.8115,-3.2451 -14,-16.894 -10,-3.0279 -18,-2.1508 -9,-0.99032 -13.736,-2.3092 0.89757,-15.505 4.8999,-6.6325 10.144,-17 6.6157,-12 10.485,-18 1.368,-10 3.8268,-11.438 8.2779,-12.062 h 0.88624 l 23.76,22 h 2.0293 l 7.882,-9.9715 1.1924,-3.6132 1.1925,-3.6132 -0.81772,-12.842 -10.771,-21.038 -5.1314,1.0694 -16.564,0.50857 -1.7192,-2.7678 -2.7165,-12.232 v -15 l 2.9014,-12.506 -1.1692,-21.44 -1.1692,-21.44 -4.1386,-26.614 -5.0357,-26 -6.1301,-26 -6.6447,-25 -3.0285,-10.863 -1.2503,-14.137 -3.8661,-21.262 -4.1368,-13.738 -6.7447,-20 -4.0222,-11 -0.03265,-5.2342 -0.03265,-5.2342 5.5,-6.155 8.2596,-1.1076 13.74,10.574 21.039,17.441 20.026,20.716 11.806,9 16.129,16.006 13.213,16.994 13.581,21 12.935,21 8.5586,13 13.119,25 12.281,27 4.0069,10 5.9531,15 4.9304,14 6.9995,22 4.8373,16 0.61654,4 0.61655,4 5.9382,29 1.8602,7 7.1125,30 2.8468,11 5.2525,26 1.3902,11.5 1.3902,11.5 0.0312,9.6276 0.0312,9.6276 -2.5,1.9581 -12,2.1596 -15,1.3272 -15,4.0147 -11.337,6.8309 -2.6522,4.5256 -2.6522,4.5256 -3.859,11.216 0.008,9.1869 3.7911,6.2172 12.385,16.704 6.1215,12.079 0.0874,5.7243 0.0873,5.7243 -2.9799,2.6886 -11,3.203 -10.985,1.4142 -6.783,5.5911 -0.26099,20.827 -0.261,20.827 -3.2448,47.183 3.8836,30.686 10.458,9.2203 -0.50439,4.4749 -0.50438,4.4749 -4.267,8.9614 -7.1206,12 0.66458,12 12.425,18.708 0.11848,1.6461 0.11849,1.6461 -0.40096,3 -3.032,4.7651 -3.032,4.7651 -11.272,8.5133 -15,9.7831 -7.86,6.6733 -8.14,-0.1338 -4,-1.2704 z m 8.6902,-20.632 3.6902,-1.0249 10.4,-7.8144 9.7544,-12.055 -5.5347,-2.8261 -11,-2.3934 -23,-1.1015 -14.801,2.3165 -5.6988,3.3663 v 4.1238 l 2.9755,4.2481 14.278,9.4062 10.247,4.7711 5,0.008 3.6902,-1.0249 z m 13.253,-65.38 6.9433,-1.3428 1.8067,-2.2312 1.8067,-2.2312 -0.0153,-1.6392 -0.0153,-1.6392 -1.4694,-2.2488 -10,-2.4053 -15,-1.992 -31,0.89582 -3.5958,1.501 0.29791,5.0983 0.29791,5.0983 8,4.5197 35,-0.0406 6.9433,-1.3428 z m -4.4433,-146.6 7.5,-1.2783 9,-7.9094 6.239,-3.2915 8.3029,-4.562 5.9581,-6.2346 v -1.7207 l -5.984,-8.2607 -7.516,-5.4191 -21.336,-3.4291 -50.129,0.141 -10.667,3.9909 -5.2414,5.4942 -1.1191,2.961 -1.1191,2.961 1.0744,4.2808 7.6185,5.2796 9.918,1.861 3,-2.5019 18.402,-11.458 11.048,-3.8831 h 7.7726 l -0.48642,2.5445 -0.48641,2.5445 -6.2498,4.5124 -5.8931,2.8985 -6.5107,6.4705 -0.66316,3.5349 -0.66315,3.5349 4.7302,6.9448 5,1.9368 11,-0.66454 7.5,-1.2783 z m -24.966,-52.998 1.9029,-1.0184 2.4333,-4.2316 2.4333,-4.2316 0.69067,-3.31 0.69066,-3.31 5.1404,-1.9544 1.2599,1.5743 5.8901,17.5 h 17.361 l 3.1636,-1.214 v -7.8853 l -3.3089,-6.4007 -5.794,-7.2115 -15.867,-14.397 -6.5303,3.0323 -14.898,5.3128 -4.1016,5.2121 -4.3722,6.0511 -6.1278,10.243 v 1.9035 l 12.5,5.2491 5.6315,0.104 1.9029,-1.0184 z m -6.505,-32.115 0.68825,-3.1336 10.282,-10.266 7.4465,-6.4666 -1.2569,-31.927 13.81,-15.296 6.2279,-7.7146 0.56218,-20.281 0.56219,-20.281 3.7668,-12 2.381,0.2 4.9304,0.3 7.0664,6.2044 4.1786,9.2956 1.7401,34 -0.97358,6.2288 -0.97357,6.2288 -7.7413,23.542 -1.0308,15.637 -0.69627,0.45797 -5.5941,2.405 h -8.9059 v 1.2576 l 7.1943,7.9633 2.8057,6.7149 v 8.1773 l 6.2381,-3.6131 14.022,-12.51 12.24,-8.6487 4,-1.5513 23.626,-2.4934 5.3738,-4.0546 -0.21481,-13.371 -0.2148,-13.371 -2.0818,-10.5 -2.0818,-10.5 -10.025,-41 -1.9333,-4 -3.839,-21 -4.9909,-22 -4.0223,-16.17 -5.2382,-15.83 -4.9636,-13 -1.8756,-4 -2.5008,-6.7495 -2.5008,-6.7495 -0.97647,-1.7505 -0.97646,-1.7505 -18.262,-41 -9.1066,-19 -14.98,-27 -14.633,-22.265 -12.376,-15.574 -23.481,-26.161 -10.726,-10.19 -27.74,-23.81 -3.9238,-2.8528 -1.8054,2.8528 -0.04098,8 6.2162,20 1.7026,4 5.0184,21 2.9541,17 5.1074,28 3.9845,18 6.1683,19.5 h 1.7529 l 10.473,-15 5.1329,0.008 6,3.6692 11,10.095 5.5257,16.728 4.7938,19 5.0945,29 4.0126,28 3.1612,21 2.0925,6.5763 -1.4529,43.924 h -1.3532 l -5.8742,-6.1367 0.6872,-15.489 -3.4323,-13.874 -1.4197,-2 -2.6449,-7 -6.527,-10 -9.6633,-9.396 -9,-4.06 -7.7819,-0.044 1.0916,17.497 8.6903,7.0033 5.827,6 10.372,16 7.5506,14.992 -0.50619,8.5041 -0.50619,8.5041 -2.0547,6 -2.0547,6 -3.2475,7 -2.4043,4 -3.5744,5.2995 -7.8585,5.2005 h -2.6669 l -17.818,-15 h -1.4636 l -5.1421,2.3429 -0.52771,2.5786 -0.52772,2.5786 -5.9647,16.38 -9.2131,16.62 -4.8594,9.7032 -4.8594,9.7028 v 0.81764 l 14.882,1.3486 9.8765,2.933 8.7417,4.8985 12,10.015 11.674,9.1957 10.326,4.721 5.3411,0.1638 0.68824,-3.1336 z"
         inkscape:connector-curvature="0" />
      <path
         id="path57"
         fill="#615462"
         d="m 151.5,810.6 -4,-1.2704 -10,-5.3317 -12.682,-8.9649 -15.78,-13.055 -3.0377,-5.8742 v -5.8479 l 2.976,-8.4349 9.685,-17.317 0.63287,-1.7363 0.63288,-1.7363 -10.502,-12.527 -7.5846,-10.486 2.1633,-6.5143 5.7479,-8.656 8.5444,-8.9652 -1.2524,-40.379 -1.9495,-15 -2.0938,-29.375 v -29.777 l -4.5,-3.9794 -5,-3.066 -8,-2.5781 -11.1,-5.5521 -2.3999,-5.2672 v -6.0052 l 3.277,-6.4007 17.397,-18 6.6608,-9.4944 0.39403,-5.2528 0.39404,-5.2528 -1.8115,-3.2451 -1.8115,-3.2451 -14,-16.894 -10,-3.0279 -18,-2.1508 -9,-0.99032 -13.736,-2.3092 0.89757,-15.505 4.8999,-6.6325 10.144,-17 6.6157,-12 10.485,-18 1.368,-10 3.8268,-11.438 8.2779,-12.062 h 0.88624 l 23.76,22 h 2.0293 l 7.882,-9.9715 1.1924,-3.6132 1.1925,-3.6132 -0.81772,-12.842 -10.771,-21.038 -5.1314,1.0694 -16.564,0.50857 -1.7192,-2.7678 -2.7165,-12.232 v -15 l 2.9014,-12.506 -1.1692,-21.44 -1.1692,-21.44 -4.1386,-26.614 -5.0357,-26 -6.1301,-26 -6.6447,-25 -3.0285,-10.863 -1.2503,-14.137 -3.8661,-21.262 -4.1368,-13.738 -6.7447,-20 -4.0222,-11 -0.03265,-5.2342 -0.03265,-5.2342 5.5,-6.155 8.2596,-1.1076 13.74,10.574 21.039,17.441 20.026,20.716 11.806,9 16.129,16.006 13.213,16.994 13.581,21 12.935,21 8.5586,13 13.119,25 12.281,27 4.0069,10 5.9531,15 4.9304,14 6.9995,22 4.8373,16 0.61654,4 0.61655,4 5.9382,29 1.8602,7 7.1125,30 2.8468,11 5.2525,26 1.3902,11.5 1.3902,11.5 0.0312,9.6276 0.0312,9.6276 -2.5,1.9581 -12,2.1596 -15,1.3272 -15,4.0147 -11.337,6.8309 -2.6522,4.5256 -2.6522,4.5256 -3.859,11.216 0.008,9.1869 3.7911,6.2172 12.385,16.704 6.1215,12.079 0.0874,5.7243 0.0873,5.7243 -2.9799,2.6886 -11,3.203 -10.985,1.4142 -6.783,5.5911 -0.26099,20.827 -0.261,20.827 -3.2448,47.183 3.8836,30.686 10.458,9.2203 -0.50439,4.4749 -0.50438,4.4749 -4.267,8.9614 -7.1206,12 0.66458,12 12.425,18.708 0.11848,1.6461 0.11849,1.6461 -0.40096,3 -3.032,4.7651 -3.032,4.7651 -11.272,8.5133 -15,9.7831 -7.86,6.6733 -8.14,-0.1338 -4,-1.2704 z m 8.6902,-20.632 3.6902,-1.0249 10.4,-7.8144 9.7544,-12.055 -5.5347,-2.8261 -11,-2.3934 -23,-1.1015 -14.801,2.3165 -5.6988,3.3663 v 4.1238 l 2.9755,4.2481 14.278,9.4062 10.247,4.7711 5,0.008 3.6902,-1.0249 z m 11.465,-40.372 5.1554,-1.7601 0.52907,-2.0232 0.52907,-2.0232 -1.7082,-4.493 -7.6606,-4.7923 h -26 l -8.4573,6 -0.0213,1.2852 -0.0214,1.2852 3.4162,5.2137 8.0838,3.7832 21,-0.71553 z m 1.7879,-25.008 6.9433,-1.3428 1.8067,-2.2312 1.8067,-2.2312 -0.0153,-1.6392 -0.0153,-1.6392 -1.4694,-2.2488 -10,-2.4053 -15,-1.992 -31,0.89582 -3.5958,1.501 0.29791,5.0983 0.29791,5.0983 8,4.5197 35,-0.0406 6.9433,-1.3428 z m -8.1933,-25.771 9.75,-1.207 0.0275,-13.553 0.0275,-13.553 1.4507,-22 1.4507,-22 0.0216,-24 -0.6083,-3.6789 -0.60829,-3.6789 -9.2614,-2.093 -14,-1.8013 -13,1.7337 -9.2292,2.1529 -0.63542,6.0794 -0.63543,6.0794 -0.012,42.207 1.061,17.5 1.0609,17.5 1.391,14 7,1.2367 15,0.28257 9.75,-1.207 z m 3.75,-120.83 7.5,-1.2783 9,-7.9094 6.239,-3.2915 8.3029,-4.562 5.9581,-6.2346 v -1.7207 l -5.984,-8.2607 -7.516,-5.4191 -21.336,-3.4291 -50.129,0.141 -10.667,3.9909 -5.2414,5.4942 -1.1191,2.961 -1.1191,2.961 1.0744,4.2808 7.6185,5.2796 9.918,1.861 3,-2.5019 18.402,-11.458 11.048,-3.8831 h 7.7726 l -0.48642,2.5445 -0.48641,2.5445 -6.2498,4.5124 -5.8931,2.8985 -6.5107,6.4705 -0.66316,3.5349 -0.66315,3.5349 4.7302,6.9448 5,1.9368 11,-0.66454 7.5,-1.2783 z m -22.479,-55.433 3.2572,-3.4537 2.4543,-10.231 5.0931,-1.9364 1.2599,1.5743 5.8901,17.5 h 17.361 L 185,524.7932 v -7.8853 l -3.2964,-6.4007 -2.4329,-3.2008 -2.4329,-3.2008 -16.737,-15.195 -8.6706,3.9499 -5.9306,1.4788 -7.4383,3.3193 -1.8905,2.4241 -1.8905,2.4241 -10.281,15.347 v 2.9411 l 12.5,5.1142 6.7638,0.0974 3.2572,-3.4537 z m -8.9917,-29.68 0.68825,-3.1336 10.282,-10.352 6.3134,-5.0944 3.9111,-7.7862 4.3062,-13 1.7457,-2.7562 2.4469,1.5123 4.6189,10.444 2.3665,8.7884 6.9857,7.7323 2.8057,6.7149 v 8.1773 l 6.2381,-3.6131 14.022,-12.51 12.24,-8.6487 4,-1.5513 23.626,-2.4934 5.3738,-4.0546 -0.21481,-13.371 -0.2148,-13.371 -2.0818,-10.5 -2.0818,-10.5 -10.025,-41 -1.9333,-4 -3.839,-21 -4.9909,-22 -4.0223,-16.17 -5.2382,-15.83 -4.9636,-13 -1.8756,-4 -2.5008,-6.7495 -2.5008,-6.7495 -0.97647,-1.7505 -0.97646,-1.7505 -18.262,-41 -9.1066,-19 -14.98,-27 -14.633,-22.265 -12.376,-15.574 -23.481,-26.161 -10.726,-10.19 -27.74,-23.81 -3.9238,-2.8528 -1.8054,2.8528 -0.04098,8 6.2162,20 1.7026,4 5.0184,21 2.9541,17 5.1074,28 3.9845,18 6.1683,19.5 h 1.7529 l 10.473,-15 5.1329,0.008 6,3.6692 11,10.095 5.5257,16.728 4.7938,19 5.0945,29 4.0126,28 3.1612,21 2.0925,6.5763 -1.4529,43.924 h -1.3532 l -5.8742,-6.1367 0.6872,-15.489 -3.4323,-13.874 -1.4197,-2 -2.6449,-7 -6.527,-10 -9.6633,-9.396 -9,-4.06 -7.7819,-0.044 1.0916,17.497 8.6903,7.0033 5.827,6 10.372,16 7.5506,14.992 -0.50619,8.5041 -0.50619,8.5041 -2.0547,6 -2.0547,6 -3.2475,7 -2.4043,4 -3.5744,5.2995 -7.8585,5.2005 h -2.6669 l -17.818,-15 h -1.4636 l -5.1421,2.3429 -0.52771,2.5786 -0.52772,2.5786 -5.9647,16.38 -9.2131,16.62 -4.8594,9.7032 -4.8594,9.7028 v 0.81764 l 14.882,1.3486 9.8765,2.933 8.7417,4.8985 12,10.015 11.674,9.1957 10.326,4.721 5.3411,0.1638 0.68824,-3.1336 z"
         inkscape:connector-curvature="0" />
      <path
         id="path59"
         fill="#0c0302"
         d="m 162.72881,826.02848 -3,-0.76974 -9.63,-4.2404 -15.37,-10.317 -17,-13.955 -2.4291,-4.2434 -0.0354,-4.6008 -0.0354,-4.6008 1.1651,-3.3992 1.1651,-3.3992 7.8507,-13 2.8191,-6.7442 v -1.6418 l -11.645,-13.614 -6.0649,-9 1.1051,-3 1.1051,-3 3.868,-6 9.9382,-11.694 -0.6461,-23.653 -0.64609,-23.653 -3.0538,-24 -1.2691,-44.498 -6.3552,-4.8474 -16.836,-6.4109 -6.4165,-4.7816 -1.2676,-6.7571 3.8543,-8.7048 21.51,-22.754 3.82,-8.9116 -0.01,-2.1671 -0.01,-2.1671 -4.6797,-10 -14.456,-16 -3.1724,-1.1372 -3.172,-1.1372 -25,-3.2865 -18,-2.4546 0.0627,-7.2174 0.0627,-7.2174 6.1355,-8.5495 6.561,-11 15.97,-28 4.4778,-8 1.3051,-11 2.1834,-7 9.0935,-14 0.5346,-0.72015 15.613,14.902 9.7306,8.7859 6.9309,-7.9673 4.8385,-10.557 -5e-4,-4.2215 -5.1e-4,-4.2215 -1.9865,-5.2265 -1.9865,-5.2265 -8.2745,-14.795 -21.694,1.0283 -2.255,-5.7805 -2.8643,-16 1.3193,-11 2.8845,-7.3112 -3.184,-48.781 -2.8243,-17.908 -3.1221,-19 -3.0141,-13 -7.0326,-30 -5.0892,-19 -2.9992,-9.7543 -2.7409,-24.733 -1.6489,-7.2561 -1.6489,-7.2561 -4.9251,-17 -9.2009,-25 -1.0052,-8.799 3.4492,-6.4047 6.9125,-3.2963 h 3.611 l 30.821,24.81 13,12.826 11.421,11.863 9.5625,7 17.717,16.978 16.356,22.022 5.7903,9 4.6535,7.5 5.3465,8.5 5,8 4.3706,7 9.0126,14 20.152,41 3.876,10 3.4296,8.5 3.4296,8.5 5.5637,15 1.8214,5 1.8214,5 6.2954,21 3.8632,13 2.0214,14 2.9851,13 4.8666,21 6.9777,29 4.1377,18 3.9564,21 1.0357,11 1.0357,11 8.3e-4,6.679 8.4e-4,6.679 -11.45,3.3286 -20.05,1.8638 -16,5.2126 -9.6504,6.1712 -8.1424,17.06 -0.1194,13.033 8.9122,11.954 10.325,15.477 1.7048,5.1326 1.7048,5.1326 -0.5002,4.4377 -0.50019,4.4377 -0.45619,0.4562 -0.4562,0.45619 -14.822,3.9418 -6.8603,0.047 -9.2835,6.4004 -0.21346,37.1 -1.0568,17.5 -1.0568,17.5 -0.0145,13.026 -0.0145,13.026 1.0277,8.4738 1.0277,8.4738 0.88504,2.649 0.88503,2.649 9.3825,8.6485 -0.82642,11.053 -2.8817,5.3664 -7.6044,13.145 -0.0588,12.279 10.846,16.209 2.3886,6.0857 -3.1165,7.4588 -7.1348,7.8974 -20.32,13.421 -10.319,8.637 -5.681,-0.20472 -3,-0.76974 z m 7.884,-21.227 4.116,-1.2011 17.5,-17.716 v -2.6389 l -5.5,-2.0921 -11,-3.6154 -32,0.0238 -11.5,4.5847 v 6.4113 l 1.4805,2.1137 1.4805,2.1137 16.539,10.618 7,2.5116 7.768,0.0878 z m 8.3853,-38.93 4.7307,-1.1505 3.5,-3.0281 v -4.5366 l -5.1731,-6.1479 -11.327,-3.3576 h -13 l -11,3.284 -4.5,3.1814 v 6.5124 l 5.6572,5.42 8.8428,1.8681 17.539,-0.8948 z m 7.4441,-25.949 3.7134,-0.97734 3.0732,-4.3876 -0.0153,-2.5275 -0.0153,-2.5275 -1.6569,-2.6124 -15.812,-2.9747 -33,-0.98153 -11.846,2.5687 -1.879,5.6748 3.4639,7.6816 5.261,2.0315 4,1.0218 41,-1.0123 3.7134,-0.97733 z m -9.2134,-25.787 6.5,-0.63312 -0.58108,-24 2.0653,-25 1.1006,-17 1.1006,-17 -1.3608,-20.251 -13.325,-3.7493 -23,0.0654 -10.502,3.5962 -0.8744,4.3385 -1.1489,26 1.9911,50 0.65842,11.334 0.65843,11.334 4.2177,1.7044 26,-0.107 6.5,-0.63311 z m 1.7956,-117.03 6.1631,-3.1111 6.1191,-6.7244 21.013,-12.542 1.4548,-2.8133 1.4548,-2.8133 v -1.8478 l -8.2253,-11.102 -9.2747,-3.9302 -27.232,-2.4196 -44.113,1.1911 -5.2911,2.0117 -6.6939,5.1057 -2.0847,4.435 -2.0847,4.435 v 1.6421 l 5.9548,6.0907 8.5452,3.0991 5.0962,1.1266 4.3723,7.7795 8.8028,8.1141 6.7287,3.5058 8,2.6605 15.132,-0.78229 z m 14.051,-56.658 0.34654,-0.30446 -0.0388,-5.0081 -0.0388,-5.0081 -1.5557,-3.0084 -1.5557,-3.0084 -16.812,-17.666 -5.1096,-2.7346 -21.168,7.5417 -0.73804,-0.74798 0.55313,-2.88 0.55314,-2.8801 8.2429,-8.2399 9.5851,-8.3942 3.7447,-12.606 3.7777,-9.5626 3.392,3.7481 2.4873,6.3468 2.4873,6.3469 0.001,1.5604 0.001,1.5604 7.9734,8.9818 3.0238,8.8744 v 5.6437 h 1.606 l 8.894,-6.4223 12.249,-11.078 11.229,-7.7282 23.522,-2.481 7.5623,-3.6909 0.61367,-2.4451 0.61368,-2.4451 -0.69108,-13.105 -0.69109,-13.105 -2.7336,-14 -5.0044,-21 -4.303,-19 -1.8053,-4 -2.8934,-15 -4.1096,-20.691 -5.2744,-21.309 -4.6808,-16.368 -5.963,-16.632 -15.2,-35 -2.835,-6 -6.1052,-13.505 v -0.98944 l -15.251,-31.462 -13.856,-24.724 -11.342,-17.319 -11.761,-16 -11.144,-12.492 -11.145,-12.492 -14.405,-14.326 -28.595,-24.527 -4.6053,-4.1095 -1.864,2.9476 -0.03063,10.137 3.0902,10.863 1.856,4 3.1812,13 2.9604,13 3.0393,13.478 3.8653,23.522 4.7485,23 3.4177,13 7.7878,23 4.9878,27 2.0658,25.79 v 41.43 l 1.2649,9.2284 3.2859,1.0429 11.791,11.508 3.2828,5.1295 3.2828,5.1295 11.093,20.312 v 8.5521 l -4.104,15.877 -7.2293,15.538 -9.5811,8.962 h -3.9029 l -18.192,-15.179 -6.2542,3.6788 -5.4964,17.342 -11.1,20.693 -9.1404,17.766 v 3.4218 l 17.583,1.0025 13.506,6.2512 9.6867,7.5237 12.725,11.201 9,5.1667 9.5,2.3693 v 1.713 l -13,19.174 v 2.6971 l 9.3915,4.5463 10.585,0.87776 5.0881,-3.3339 4.9358,-11.161 v -2.884 l 5.2387,0.63284 1.7158,5.5669 1.7158,5.5669 1.4149,3.2386 1.4149,3.2386 20,-1.3618 z"
         inkscape:connector-curvature="0" />
    </g>
  </g>
  <style
     type="text/css"
     id="style80315">
	.st0{fill:#32de84;}
</style>
</svg>
